# xmcd
#
# Track frame offsets:
#  150
#  12773
#  32130
#  49538
#  65465
#  77339
#  88559
#  103875
#  120805
#  134188
#  146335
#  155919
#  166433
#  178318
#  195998
#  206996
#  231604
#
# Disc length: 3231 seconds
#
# Revision: 0
# Processed by: cddbd v1.5.1PL0 Copyright (c) Steve Scherf et al.
# Submitted via: AltoMP3_Maker 3.0
#
DISCID=ee0c9d11
DTITLE=k-paz de la sierra - en vivo
DYEAR=1900
DGENRE=
TTITLE0=Jambalaya
TTITLE1=Rafita Polka
TTITLE2=Mi eterno amor secreto
TTITLE3=Con olor a hierba
TTITLE4=Las tres tumbas
TTITLE5=Las Isabeles
TTITLE6=El Gavilan
TTITLE7=Mi gusto es
TTITLE8=Echame a mi la culpa
TTITLE9=Ayer baje de la sierra
TTITLE10=Se les pelo baltazar
TTITLE11=El domingo se casa
TTITLE12=No volvere
TTITLE13=La Lupe
TTITLE14=Alla en el Kiosko
TTITLE15=Jambalaya
TTITLE16=Data Info
EXTD=
EXTT0=
EXTT1=
EXTT2=
EXTT3=
EXTT4=
EXTT5=
EXTT6=
EXTT7=
EXTT8=
EXTT9=
EXTT10=
EXTT11=
EXTT12=
EXTT13=
EXTT14=
EXTT15=
EXTT16=
PLAYORDER=
